PathFileType	4	(X/Y/Z)	C:\Users\Basilio\Documents\Thesis Gigler\squatting_fais\c3dfiles\041\SJ_pre2\markers_experimental.trc
DataRate	CameraRate	NumFrames	NumMarkers	Units	OrigDataRate	OrigDataStartFrame	OrigNumFrames
200.000000	200.000000	4	62	mm	200.000000	173	1390
Frame#	Time	FHD			LBHD			RBHD			C7			T10			CLAV			LSHO			LUUPA			LMUPA			LDUPA			LLEP			LMEP			LRAD			LUL			LRFIN			RSHO			RUPA1			RMUPA			RDUPA			RLEP			RMEP			RRAD			RUL			RUFIN			LASI			RASI			USACR			LSACR			RSACR			LTHI1			LTHI2			LTHI3			LTHI4			LLFC			LMFC			LTIB1			LTIB2			LTIB3			LTIB4			LLMAL			LMMAL			LHEE			LMT1			LMT2			LMT5			RTHI			RTHI2			RTHI3			RTHI4			RLFC			RMFC			RTIB1			RTIB2			RTIB3			RTIB4			RLMAL			RMMAL			RHEE			RMT1			RMT2			RMT5			*61			
		X1	Y1	Z1	X2	Y2	Z2	X3	Y3	Z3	X4	Y4	Z4	X5	Y5	Z5	X6	Y6	Z6	X7	Y7	Z7	X8	Y8	Z8	X9	Y9	Z9	X10	Y10	Z10	X11	Y11	Z11	X12	Y12	Z12	X13	Y13	Z13	X14	Y14	Z14	X15	Y15	Z15	X16	Y16	Z16	X17	Y17	Z17	X18	Y18	Z18	X19	Y19	Z19	X20	Y20	Z20	X21	Y21	Z21	X22	Y22	Z22	X23	Y23	Z23	X24	Y24	Z24	X25	Y25	Z25	X26	Y26	Z26	X27	Y27	Z27	X28	Y28	Z28	X29	Y29	Z29	X30	Y30	Z30	X31	Y31	Z31	X32	Y32	Z32	X33	Y33	Z33	X34	Y34	Z34	X35	Y35	Z35	X36	Y36	Z36	X37	Y37	Z37	X38	Y38	Z38	X39	Y39	Z39	X40	Y40	Z40	X41	Y41	Z41	X42	Y42	Z42	X43	Y43	Z43	X44	Y44	Z44	X45	Y45	Z45	X46	Y46	Z46	X47	Y47	Z47	X48	Y48	Z48	X49	Y49	Z49	X50	Y50	Z50	X51	Y51	Z51	X52	Y52	Z52	X53	Y53	Z53	X54	Y54	Z54	X55	Y55	Z55	X56	Y56	Z56	X57	Y57	Z57	X58	Y58	Z58	X59	Y59	Z59	X60	Y60	Z60	X61	Y61	Z61	X62	Y62	Z62	

174	0.865	-199.3729248046876	1737.590698242188	-820.8785400390627	-364.1805419921876	1659.585083007813	-910.0062255859377	-350.1678466796876	1651.025756835938	-757.1315307617189	-398.4913024902345	1525.306884765625	-852.6215820312502	-449.9116516113282	1211.339233398438	-867.3533325195315	-246.9035034179688	1448.947387695313	-851.9145507812502	-311.3245239257813	1516.412353515625	-1023.268920898438	-384.559051513672	1396.782592773438	-1167.359375	-368.1666259765626	1349.605224609375	-1169.8798828125	-413.9308471679689	1351.08251953125	-1210.471923828125	-432.3035583496095	1307.827026367188	-1237.619018554688	-491.8225097656251	1272.405151367188	-1175.92236328125	-365.0660400390626	1097.556396484375	-1084.09326171875	-350.1568298339844	1060.9609375	-1146.847290039063	-315.7863769531251	1075.532104492188	-1048.722778320313	-305.0267333984376	1503.689453125	-680.1945190429689	-404.1309509277345	1366.38671875	-532.7081298828126	-366.3654785156251	1332.4462890625	-535.6462402343751	-400.7605285644532	1303.754516601563	-498.8716735839845	-405.3560485839845	1255.496215820313	-483.2772827148439	-475.0410156250001	1240.633056640625	-544.8453979492189	-380.4400939941407	1066.944458007813	-656.4745483398439	-335.6748962402344	1055.186157226563	-698.7728881835939	-355.6956787109376	1022.304504394531	-599.5177612304689	-280.3663635253907	1015.284790039063	-984.5534667968752	-288.8937988281251	1000.731994628906	-765.5033569335939	-459.5845336914064	1098.06689453125	-877.2169189453127	-475.4938964843751	1074.246337890625	-905.6896972656252	-478.4411010742189	1072.00537109375	-851.067321777344	-402.2121887207032	828.4367675781252	-1090.055419921875	-359.9354248046876	755.9151611328126	-1104.352294921875	-312.0977783203126	761.3978271484376	-1093.64697265625	-383.9068298339844	698.9949340820314	-1101.184692382813	-350.0639648437501	524.5319824218751	-1120.780151367188	-336.4814453125001	483.3456115722657	-1009.763000488281	-322.5590515136719	326.6865234375001	-1106.033935546875	-374.1890258789063	298.9647216796876	-1174.887084960938	-336.4320373535157	289.1002502441407	-1152.078979492188	-337.8145751953126	206.801742553711	-1134.674194335938	-398.5362243652345	114.6213607788086	-1194.478393554688	-358.3705444335938	114.7462768554688	-1112.568725585938	-456.5978088378907	63.61315536499025	-1160.204467773438	-239.7466125488282	67.53720855712892	-1129.583618164063	-232.8311767578126	68.51982879638673	-1174.136108398438	-272.2678527832032	40.6560287475586	-1228.693603515625	-392.6672668457032	754.7828979492189	-691.3902587890626	-349.7367248535157	704.6445312500001	-684.2722778320314	-316.7098388671876	709.7047729492189	-687.4846801757814	-367.7118835449219	622.9050903320314	-695.8369140625001	-351.3981628417969	497.5930175781251	-689.4814453125001	-332.3241882324219	475.2073364257814	-805.142517089844	-323.2637329101563	328.1030578613282	-691.9382324218751	-410.810028076172	257.8360290527344	-673.6251220703126	-364.0686035156251	252.4961700439454	-674.8568725585939	-345.3546142578126	202.389633178711	-702.2783203125001	-410.3657836914064	92.6195755004883	-684.7079467773439	-378.8939819335938	102.7041702270508	-764.1220092773439	-465.858367919922	48.58157348632814	-734.8734741210939	-247.689193725586	52.99470138549806	-728.7055053710939	-248.9662780761719	58.170467376709	-676.8151245117189	-295.3654479980469	37.97118759155274	-629.7043457031251	-4217.089355468751	853.1765136718752	-3944.800292968751	
175	0.87	-199.2187805175782	1737.506103515625	-820.0913696289065	-364.1318969726563	1659.545288085938	-909.1958007812502	-350.1006164550782	1650.864379882813	-756.4508666992189	-398.3737182617189	1525.307373046875	-852.0278930664065	-449.7827758789064	1211.238403320313	-867.245300292969	-246.7583312988282	1448.695678710938	-851.4183349609377	-311.2953796386719	1516.563354492188	-1022.618103027344	-384.6201477050782	1396.976440429688	-1166.799682617188	-368.2946777343751	1349.91259765625	-1169.4736328125	-413.9573364257814	1351.315185546875	-1210.034790039063	-432.3546142578126	1308.218994140625	-1237.26416015625	-491.834686279297	1272.66796875	-1175.52880859375	-365.0319213867188	1097.656372070313	-1084.016845703125	-350.2117004394532	1061.095092773438	-1146.8310546875	-315.6799011230469	1075.578125	-1048.747192382813	-304.9488525390626	1503.35205078125	-679.6678466796876	-403.8272399902345	1365.884033203125	-532.2496948242189	-366.0505065917969	1331.908447265625	-535.1466064453126	-400.567840576172	1303.161987304688	-498.4096069335939	-405.1423645019532	1254.987060546875	-482.7939758300782	-474.9116821289064	1240.279541015625	-544.4525146484376	-380.1697387695313	1066.723754882813	-656.3510742187501	-335.5900268554688	1055.17919921875	-698.8570556640626	-355.4678649902344	1021.989624023438	-599.5321655273439	-280.7288818359376	1015.432495117188	-984.6339111328127	-288.6654357910157	1000.612182617188	-765.5089111328126	-459.4566040039064	1097.994873046875	-877.187683105469	-475.3556518554689	1074.08154296875	-905.6358642578127	-478.305633544922	1071.868408203125	-851.030944824219	-401.9219665527345	828.3488769531252	-1090.105834960938	-359.5179138183594	755.8538208007814	-1104.362060546875	-311.6606445312501	761.2817382812501	-1093.389526367188	-383.5513610839844	698.8854980468751	-1101.310302734375	-349.6592102050782	524.4788208007814	-1120.966674804688	-336.1705932617188	483.2822265625001	-1010.020141601563	-322.4956359863282	326.5138854980469	-1106.217529296875	-374.2743530273438	299.0117492675782	-1175.017944335938	-336.6014099121094	288.9866943359376	-1152.26220703125	-338.0123901367188	206.6191711425782	-1134.883056640625	-398.495819091797	114.3577957153321	-1194.785278320313	-358.9254760742188	114.7086334228516	-1112.675048828125	-456.885711669922	63.47677230834962	-1160.541259765625	-240.1013183593751	67.6852493286133	-1129.726440429688	-233.0538024902344	68.99173736572267	-1174.271240234375	-272.6964721679688	41.16405105590821	-1228.82177734375	-392.4935302734376	754.6974487304689	-691.3504028320314	-349.6084594726563	704.6124877929689	-684.1903686523439	-316.4898681640626	709.6481323242189	-687.4125366210939	-367.5632934570313	622.8120727539064	-695.7781982421876	-351.1696472167969	497.5996398925782	-689.4521484375001	-332.0344848632813	475.1417846679689	-805.063903808594	-323.0886230468751	327.9974670410157	-691.9114379882814	-410.628387451172	257.7467956542969	-673.7359619140626	-363.8936462402344	252.4492492675782	-674.7803344726564	-345.2655334472657	202.3820190429688	-702.2332763671876	-410.3648071289064	92.66035461425783	-684.7155761718751	-378.9602966308594	102.6594009399414	-764.1420898437501	-465.833465576172	48.6009979248047	-734.9030151367189	-247.6947326660157	52.98757934570314	-728.6979370117189	-248.9560852050782	58.41358184814455	-676.6768188476564	-295.3171691894532	37.95305252075196	-629.6759033203126	-4216.839355468751	853.1552734375002	-3944.834228515626	
176	0.875	-199.0024871826172	1737.361938476563	-819.4238281250002	-364.0541992187501	1659.500366210938	-908.4768066406252	-350.0218811035157	1650.630981445313	-755.6926269531251	-398.3401489257814	1525.089965820313	-851.5319824218752	-449.596893310547	1211.108764648438	-867.2178344726565	-246.7190551757813	1448.620971679688	-851.042175292969	-311.3740539550782	1516.764770507813	-1022.071838378906	-384.7780761718751	1397.170654296875	-1166.243530273438	-368.2868347167969	1350.230834960938	-1169.214599609375	-413.9829406738282	1351.652954101563	-1209.693725585938	-432.3280029296876	1308.457763671875	-1236.829467773438	-491.7807922363282	1272.918579101563	-1175.221801757813	-365.0375061035157	1097.702270507813	-1084.004516601563	-350.2835388183594	1061.255859375	-1146.867065429688	-315.5966186523438	1075.501586914063	-1048.761596679688	-304.8827819824219	1503.008178710938	-679.1496582031251	-403.7563476562501	1365.4287109375	-531.7440185546876	-365.7763671875001	1331.360107421875	-534.8209838867189	-400.2732543945314	1302.613159179688	-498.0029296875001	-404.8899230957032	1254.374877929688	-482.4314575195314	-474.6844482421876	1239.740844726563	-544.0837402343751	-380.0175170898438	1066.4833984375	-656.3101196289064	-335.5239868164063	1055.039672851563	-698.7927856445314	-355.3415222167969	1021.6044921875	-599.4367065429689	-280.6139526367188	1015.34228515625	-984.682800292969	-288.4759826660157	1000.537536621094	-765.5645751953126	-459.1605529785157	1097.607177734375	-877.0509033203127	-475.1659240722657	1073.9306640625	-905.585388183594	-478.1456298828126	1071.72412109375	-851.0567626953127	-401.589813232422	828.1676025390627	-1090.153564453125	-359.2138061523438	755.8441772460939	-1104.366333007813	-311.4336547851563	761.3619995117189	-1093.5048828125	-383.1405334472657	698.7186889648439	-1101.436157226563	-349.2485351562501	524.3723754882814	-1121.145751953125	-335.7182006835938	483.2181091308595	-1010.190002441406	-322.4421691894532	326.4085388183594	-1106.421508789063	-374.3119506835938	299.0309143066407	-1175.244384765625	-336.7181396484376	288.9283447265626	-1152.39794921875	-338.2949829101563	206.5464019775391	-1135.005249023438	-399.0464477539064	114.4474258422852	-1194.944702148438	-359.4244384765626	114.6285171508789	-1112.794677734375	-457.2656250000001	63.30956649780275	-1160.839965820313	-240.5188598632813	67.83541870117189	-1129.90234375	-233.3502502441407	69.24664306640626	-1174.509521484375	-273.0680541992188	41.62170028686524	-1229.053588867188	-392.2062072753907	754.6060791015626	-691.3965454101564	-349.5127563476563	704.4398193359376	-683.8220214843751	-316.3503723144532	709.6223754882814	-687.2741699218751	-367.4061584472657	622.7878417968751	-695.7037353515626	-350.7224426269532	497.5169067382814	-689.5292968750001	-331.7891845703126	475.0982360839845	-805.0283813476565	-322.9428100585938	327.9653930664063	-691.9462280273439	-410.4494628906251	257.7579345703126	-673.5538330078126	-363.7724609375001	252.4344329833985	-674.7730712890626	-345.0374145507813	202.3104248046876	-702.3351440429689	-410.4019470214845	92.70188140869142	-684.7557373046876	-378.9634704589844	102.6251678466797	-764.1323852539064	-465.8165893554689	48.58528900146486	-734.9261474609376	-247.4629974365235	52.73029708862306	-728.6442260742189	-248.8677520751954	58.47306442260744	-676.6218872070314	-295.3569335937501	37.95184326171876	-629.6964111328126	-4217.533203125001	853.2143554687502	-3944.641845703126	
177	0.88	-198.5829467773438	1736.897705078125	-818.6182250976565	-364.0752563476563	1659.482055664063	-907.6531372070315	-349.9372863769532	1650.4697265625	-754.8765869140626	-398.2779541015626	1524.879760742188	-850.933288574219	-449.4244384765626	1210.946533203125	-867.2443847656252	-246.5383758544922	1448.61572265625	-850.7017211914065	-311.2861938476563	1516.885498046875	-1021.621704101563	-384.8725585937501	1397.395629882813	-1165.855712890625	-368.5288696289063	1350.484375	-1168.78076171875	-413.9717712402345	1351.961059570313	-1209.428100585938	-432.4344787597657	1308.713745117188	-1236.545654296875	-491.7071533203126	1273.05712890625	-1174.824951171875	-364.9124145507813	1097.718994140625	-1083.933837890625	-350.1741943359376	1061.325927734375	-1146.927612304688	-315.4368591308594	1075.500244140625	-1048.873779296875	-304.8178405761719	1502.65380859375	-678.6668090820314	-403.3963928222657	1364.87548828125	-531.3249511718751	-365.5268859863282	1330.982666015625	-534.5228881835939	-400.0145568847657	1302.082641601563	-497.6316833496095	-404.6706848144532	1253.725463867188	-482.0287475585939	-474.4497375488282	1239.228515625	-543.7442016601564	-379.7208251953126	1066.189086914063	-656.2723999023439	-335.2546691894532	1054.939086914063	-698.7955322265626	-355.2060241699219	1021.2490234375	-599.4654541015626	-280.1239013671876	1015.150512695313	-984.6712036132815	-287.8729553222657	1000.368957519531	-765.6486816406251	-458.9537353515626	1097.4970703125	-877.1058349609377	-475.0169982910157	1073.808715820313	-905.5997314453127	-481.5361328125001	1072.325073242188	-852.0385742187502	-401.3392944335939	827.9946289062502	-1090.209350585938	-358.9096679687501	755.8286743164064	-1104.372680664063	-311.2378845214844	761.3098144531251	-1093.49169921875	-382.8293457031251	698.5885009765626	-1101.4921875	-348.9143676757813	524.2489624023439	-1121.283203125	-335.3303222656251	483.1061096191407	-1010.424926757813	-322.4087219238282	326.1932067871094	-1106.6513671875	-374.6347656250001	298.9118347167969	-1175.414794921875	-336.8676757812501	288.8471069335938	-1152.488037109375	-338.6460571289063	206.4298248291016	-1135.197631835938	-399.8192138671876	114.716293334961	-1195.056518554688	-359.9326171875001	114.4678039550782	-1112.919799804688	-457.8493652343751	63.26066207885744	-1161.1162109375	-241.2452697753907	68.02991485595705	-1130.12646484375	-233.8629760742188	69.37739562988283	-1174.7275390625	-273.4927368164063	42.13201522827149	-1229.417724609375	-392.0099182128907	754.5248413085939	-691.3785400390626	-349.2105102539063	704.4604492187501	-684.0474243164064	-316.0036926269532	709.5148925781251	-687.3076171875001	-366.9118957519532	622.7142944335939	-695.7705688476564	-350.5782775878907	497.4832153320314	-689.5002441406251	-331.5542602539063	475.0028686523439	-805.0134887695315	-322.7924804687501	327.8734130859376	-691.9272460937501	-410.3043518066407	257.7548522949219	-673.5487670898439	-363.5543823242188	252.3676757812501	-674.8107910156251	-344.9940795898438	202.2553100585938	-702.3201904296876	-410.4197998046876	92.71026611328126	-684.7725830078126	-378.9400939941407	102.6223983764649	-764.1495361328126	-465.8239746093751	48.57191085815431	-734.9168701171876	-247.6871490478516	52.95572662353517	-728.6809082031251	-248.9090270996094	58.25521087646486	-676.7243652343751	-295.3281555175782	37.94278717041016	-629.7094726562501	-4216.792968750001	853.1313476562502	-3944.675292968751	
